# xmcd
#
# Track frame offsets:
#	150
#	17250
#	33315
#	49605
#	65337
#	82536
#	101031
#	118995
#	133881
#	155967
#	171290
#	184520
#
# Disc length: 2735 seconds
# Revision: 1
# Processed by: cddbd v1.5.2PL0 Copyright (c) Steve Scherf et al.
# Submitted via: dBpowerAMP V12.0
#
DISCID=970aad0c
DTITLE=Peter Jagger - The Rough Edge
DYEAR=1995
DGENRE=Blues
TTITLE0=Talking About It
TTITLE1=Tongue Tied Blues
TTITLE2=Judging by Appearance
TTITLE3=Who's That Girl
TTITLE4=Remember Me
TTITLE5=Trader John's
TTITLE6=City Living
TTITLE7=Southern Comfort
TTITLE8=Late in the Evening
TTITLE9=Smiling Again
TTITLE10=The Way It Is
TTITLE11=Uncertainty
EXTD=
EXTT0=
EXTT1=
EXTT2=
EXTT3=
EXTT4=
EXTT5=
EXTT6=
EXTT7=
EXTT8=
EXTT9=
EXTT10=
EXTT11=
PLAYORDER=
